Naruto Episodes 37-52, minus intros, outros, editied for continuity.

Format                                   : MPEG-4
Codec ID                                 : M4V 
File size                                : 3.01 GiB
Duration                                 : 4h 58mn
Overall bit rate mode                    : Variable
Overall bit rate                         : 1 443 Kbps
Encoded date                             : UTC 2012-12-12 13:37:41


Video
ID                                       : 1
Format                                   : AVC
Format/Info                              : Advanced Video Codec
Format profile                           : Baseline@L3.0
Format settings, CABAC                   : No
Format settings, ReFrames                : 2 frames
Format settings, GOP                     : M=1, N=72
Codec ID                                 : avc1
Codec ID/Info                            : Advanced Video Coding
Duration                                 : 4h 58mn
Source duration                          : 4h 58mn
Bit rate mode                            : Variable
Bit rate                                 : 1 315 Kbps
Width                                    : 640 pixels
Height                                   : 480 pixels
Display aspect ratio                     : 4:3
Frame rate mode                          : Variable
Frame rate                               : 23.976 fps
Minimum frame rate                       : 23.976 fps
Maximum frame rate                       : 24.000 fps
Standard                                 : NTSC
Color space                              : YUV
Chroma subsampling                       : 4:2:0
Bit depth                                : 8 bits
Scan type                                : Progressive
Bits/(Pixel*Frame)                       : 0.179
Stream size                              : 2.74 GiB (91%)
Source stream size                       : 2.74 GiB (91%)
Language                                 : English
Encoded date                             : UTC 2012-12-12 13:37:41


Audio
ID                                       : 2
Format                                   : AAC
Format/Info                              : Advanced Audio Codec
Format profile                           : LC
Codec ID                                 : 40
Duration                                 : 4h 58mn
Bit rate mode                            : Variable
Bit rate                                 : 126 Kbps
Maximum bit rate                         : 212 Kbps
Channel(s)                               : 2 channels
Channel positions                        : Front: L R
Sampling rate                            : 44.1 KHz
Compression mode                         : Lossy
Stream size                              : 268 MiB (9%)